<svg xmlns="http://www.w3.org/2000/svg" viewBox="0 0 106 24" fill="none">
    <path d="M95.8396 23.9075C94.368 23.9075 93.2281 23.4969 92.4197 22.6757C91.6321 21.8545 91.2383 20.7151 91.2383 19.2575V0.904135H93.4457V19.0728C93.4457 20.0376 93.6737 20.7767 94.1297 21.2899C94.5856 21.7826 95.2696 22.029 96.1816 22.029C96.7619 22.029 97.2594 21.9366 97.6739 21.7519L97.8294 23.5687C97.1868 23.7945 96.5236 23.9075 95.8396 23.9075Z" fill="currentColor" />
    <path d="M87.3335 23.9075C85.8619 23.9075 84.7219 23.4969 83.9136 22.6757C83.126 21.8545 82.7322 20.7151 82.7322 19.2575V0.904135H84.9395V19.0728C84.9395 20.0376 85.1675 20.7767 85.6235 21.2899C86.0795 21.7826 86.7635 22.029 87.6755 22.029C88.2558 22.029 88.7533 21.9366 89.1678 21.7519L89.3232 23.5687C88.6807 23.7945 88.0175 23.9075 87.3335 23.9075Z" fill="currentColor" />
    <path d="M75.4713 7.5557H77.6787V23.7535H75.4713V7.5557Z" fill="currentColor" />
    <path d="M64.1926 15.6238L60.3374 19.1343V23.7535H58.13V0.904135H60.3374V16.3937L70.0997 7.5557H72.8356L65.8404 14.1765L73.4885 23.7535H70.7837L64.1926 15.6238Z" fill="currentColor" />
    <path d="M48.3905 23.9075C47.064 23.9075 45.7893 23.7227 44.5665 23.3532C43.3643 22.9631 42.4213 22.4807 41.7373 21.9058L42.7322 20.1814C43.4161 20.7151 44.2763 21.1565 45.3126 21.5055C46.349 21.834 47.4267 21.9982 48.546 21.9982C50.0383 21.9982 51.1368 21.7724 51.8415 21.3207C52.567 20.8486 52.9297 20.1916 52.9297 19.3499C52.9297 18.7546 52.7328 18.2926 52.339 17.9642C51.9452 17.6152 51.4477 17.3585 50.8466 17.1943C50.2456 17.0095 49.4476 16.835 48.4527 16.6708C47.1262 16.4245 46.0588 16.1781 45.2504 15.9317C44.4421 15.6649 43.7478 15.2235 43.1674 14.6076C42.6078 13.9917 42.328 13.1397 42.328 12.0517C42.328 10.6967 42.898 9.58813 44.0379 8.72589C45.1779 7.86365 46.7635 7.43253 48.7947 7.43253C49.8518 7.43253 50.9088 7.57623 51.9659 7.86365C53.0229 8.13053 53.8935 8.4898 54.5774 8.94145L53.6136 10.6967C52.2664 9.77289 50.6601 9.31098 48.7947 9.31098C47.3853 9.31098 46.3179 9.55733 45.5924 10.05C44.8877 10.5427 44.5354 11.1894 44.5354 11.9901C44.5354 12.606 44.7323 13.0987 45.1261 13.4682C45.5406 13.8377 46.0484 14.1149 46.6495 14.2996C47.2506 14.4639 48.0796 14.6384 49.1367 14.8232C50.4425 15.0695 51.4892 15.3159 52.2768 15.5622C53.0644 15.8086 53.738 16.2294 54.2976 16.8248C54.8572 17.4201 55.1371 18.2413 55.1371 19.2883C55.1371 20.7049 54.536 21.834 53.3338 22.6757C52.1524 23.4969 50.5047 23.9075 48.3905 23.9075Z" fill="currentColor" />
    <path d="M38.6581 0.904283V23.7536H34.0257V21.8444C32.8235 23.2815 31.0825 24 28.8025 24C27.2273 24 25.7972 23.651 24.5121 22.953C23.2478 22.255 22.2529 21.2593 21.5275 19.9659C20.802 18.6726 20.4393 17.1739 20.4393 15.47C20.4393 13.766 20.802 12.2674 21.5275 10.974C22.2529 9.68065 23.2478 8.68497 24.5121 7.98696C25.7972 7.28896 27.2273 6.93996 28.8025 6.93996C30.9374 6.93996 32.6059 7.60717 33.808 8.94159V0.904283H38.6581ZM29.642 20.0583C30.8648 20.0583 31.8805 19.6477 32.6888 18.8265C33.4971 17.9848 33.9013 16.866 33.9013 15.47C33.9013 14.074 33.4971 12.9654 32.6888 12.1442C31.8805 11.3025 30.8648 10.8816 29.642 10.8816C28.3984 10.8816 27.3724 11.3025 26.5641 12.1442C25.7557 12.9654 25.3515 14.074 25.3515 15.47C25.3515 16.866 25.7557 17.9848 26.5641 18.8265C27.3724 19.6477 28.3984 20.0583 29.642 20.0583Z" fill="currentColor" />
    <path d="M18.2187 7.18633V23.7536H13.5863V21.8444C12.3842 23.2815 10.6431 24 8.36321 24C6.78798 24 5.35784 23.651 4.07279 22.953C2.80846 22.255 1.81358 21.2593 1.08815 19.966C0.362717 18.6726 0 17.1739 0 15.47C0 13.766 0.362717 12.2674 1.08815 10.974C1.81358 9.68067 2.80846 8.68499 4.07279 7.98699C5.35784 7.28898 6.78798 6.93998 8.36321 6.93998C10.4981 6.93998 12.1666 7.60719 13.3687 8.94161V7.18633H18.2187ZM9.20264 20.0583C10.4255 20.0583 11.4411 19.6477 12.2495 18.8266C13.0578 17.9849 13.462 16.866 13.462 15.47C13.462 14.074 13.0578 12.9654 12.2495 12.1442C11.4411 11.3025 10.4255 10.8816 9.20264 10.8816C7.95904 10.8816 6.93307 11.3025 6.12473 12.1442C5.31639 12.9654 4.91222 14.074 4.91222 15.47C4.91222 16.866 5.31639 17.9849 6.12473 18.8266C6.93307 19.6477 7.95904 20.0583 9.20264 20.0583Z" fill="currentColor" />
    <path d="M79.2365 2.51531C79.2365 3.90448 78.0996 5.03062 76.6971 5.03062C75.2946 5.03062 74.1576 3.90448 74.1576 2.51531C74.1576 1.12614 75.2946 0 76.6971 0C78.0996 0 79.2365 1.12614 79.2365 2.51531Z" fill="currentColor" />
    <path d="M105.6 21.3996C105.6 22.7888 104.463 23.9149 103.061 23.9149C101.658 23.9149 100.521 22.7888 100.521 21.3996C100.521 20.0105 101.658 18.8843 103.061 18.8843C104.463 18.8843 105.6 20.0105 105.6 21.3996Z" fill="currentColor" />
</svg>
